#!OML:ASF H:\Terrain\Patient Classification 1\Walking\liu\liu.ASF
:FULLY-SPECIFIED
:DEGREES
298
root 9.09562 17.1617 23.2434 4.46355 7.52471 -3.86595
lowerback -5.50496 -2.39488 -1.28999
upperback -1.67173 -3.1961 4.15205
thorax 1.66964 -1.60257 4.7933
lowerneck -21.0006 -2.92538 -11.8117
upperneck 22.4835 -2.82784 9.9319
head 11.0634 -1.078 5.20385
rclavicle 1.37099e-014 -3.57812e-014
rhumerus -45.4819 3.48111 -79.348
rradius 19.0718
rwrist 1.27186
rhand -23.0007 -23.9334
rfingers 7.12502
rthumb 3.44245 -53.8854
lclavicle 1.37099e-014 -3.57812e-014
lhumerus -24.8554 -25.206 96.511
lradius 37.1027
lwrist 7.97896
lhand -14.81 -26.8439
lfingers 7.12502
lthumb 11.348 2.82904
rfemur -21.32 -1.79841 31.7812
rtibia 31.2761
rfoot -11.9515 8.23368
rtoes -6.82231
lfemur -13.2394 9.26022 -12.6999
ltibia 68.8603
lfoot -0.234389 9.33845
ltoes -12.9463
299
root 9.08881 17.1795 23.4049 4.52151 7.37179 -3.51154
lowerback -6.00576 -2.23855 -1.92266
upperback -0.455029 -2.98523 4.07531
thorax 3.21671 -1.5454 5.04909
lowerneck -24.4132 -3.46814 -11.3566
upperneck 23.0163 -3.30795 9.64076
head 11.9715 -1.22643 4.98804
rclavicle 6.09896e-014 -3.81667e-014
rhumerus -42.2292 3.37783 -79.3969
rradius 18.8388
rwrist 0.858472
rhand -22.6961 -21.5176
rfingers 7.12502
rthumb 3.73656 -51.4646
lclavicle 6.09896e-014 -3.81667e-014
lhumerus -22.8178 -25.3488 95.6724
lradius 36.1755
lwrist 7.65413
lhand -14.1933 -26.1667
lfingers 7.12502
lthumb 11.9427 3.47267
rfemur -20.3224 -1.73661 31.4603
rtibia 30.7616
rfoot -12.3572 8.20136
rtoes -6.76963
lfemur -15.0588 9.07061 -13.4062
ltibia 69.8838
lfoot 0.322363 9.49943
ltoes -6.36203
300
root 9.07595 17.1973 23.5682 4.64931 6.94101 -3.62056
lowerback -5.97798 -1.95326 -2.07107
upperback -0.633562 -2.59261 4.17569
thorax 2.98647 -1.34514 5.28014
lowerneck -22.6967 -3.3812 -11.9497
upperneck 22.0658 -3.27275 10.2148
head 11.2989 -1.21456 5.26438
rclavicle 8.7838e-015 -1.59028e-014
rhumerus -41.8762 3.98808 -79.5518
rradius 19.1343
rwrist 0.412868
rhand -22.2819 -20.6943
rfingers 7.12502
rthumb 4.13651 -50.6339
lclavicle 8.7838e-015 -1.59028e-014
lhumerus -23.9236 -25.088 96.2977
lradius 35.5758
lwrist 7.2598
lhand -13.5057 -25.2806
lfingers 7.12502
lthumb 12.6057 4.31911
rfemur -19.3989 -0.96272 31.6376
rtibia 30.2447
rfoot -12.6903 7.88178
rtoes -5.72373
lfemur -16.9699 9.35064 -13.517
ltibia 70.812
lfoot -2.08837 9.20821
ltoes -12.6682
301
root 9.07383 17.2149 23.7191 4.99972 6.45017 -4.05621
lowerback -5.93521 -1.6273 -1.69269
upperback -1.00111 -2.1747 4.32183
thorax 2.52786 -1.11817 5.26104
lowerneck -21.8694 -3.4116 -12.3236
upperneck 22.0517 -3.34427 10.4347
head 11.157 -1.27066 5.39381
rclavicle 1.28216e-014 2.06736e-014
rhumerus -41.8092 5.20454 -80.1448
rradius 19.7673
rwrist -0.245628
rhand -22.6442 -21.8751
rfingers 7.12502
rthumb 3.7867 -51.8212
lclavicle 1.28216e-014 2.06736e-014
lhumerus -25.2098 -24.887 96.9252
lradius 35.0022
lwrist 6.94422
lhand -12.9653 -24.6656
lfingers 7.12502
lthumb 13.1266 4.90123
rfemur -18.8377 -0.564588 32.232
rtibia 29.6437
rfoot -13.283 7.70289
rtoes -9.77913
lfemur -19.327 9.69397 -13.3808
ltibia 71.7132
lfoot -3.47491 8.94882
ltoes -12.7271
302
root 9.07253 17.2328 23.8863 5.05466 5.85633 -4.67867
lowerback -5.3696 -1.19004 -0.887926
upperback -1.45542 -1.61646 4.28747
thorax 1.66034 -0.8129 4.82487
lowerneck -21.9076 -3.59172 -12.3168
upperneck 22.908 -3.68021 10.5366
head 11.5346 -1.41995 5.41479
rclavicle 8.60365e-016 2.70347e-014
rhumerus -42.2598 6.14719 -81.0241
rradius 20.7945
rwrist -1.04657
rhand -23.6984 -23.0917
rfingers 7.12502
rthumb 2.76861 -53.0535
lclavicle 8.60365e-016 2.70347e-014
lhumerus -26.878 -25.0378 97.4148
lradius 34.4715
lwrist 6.82453
lhand -12.5043 -24.2661
lfingers 7.12502
lthumb 13.571 5.27158
rfemur -17.9114 -0.46237 33.0856
rtibia 28.9421
rfoot -13.7426 7.40633
rtoes -15.9437
lfemur -21.2042 9.98724 -12.9627
ltibia 72.3432
lfoot -4.82991 8.75744
ltoes -11.3988
